# xmcd
#
# Track frame offsets:
#	150
#	18697
#	37312
#	55150
#	72420
#	88115
#	102370
#	119537
#	134747
#	152095
#	172495
#
# Disc length: 2556 seconds
#
# Revision: 2
# Processed by: cddbd v1.5.2PL0 Copyright (c) Steve Scherf et al.
# Submitted via: EasyCDDAExtractor 15.3.0.1
#
DISCID=ad09fa0b
DTITLE=Daniela Romo - Quiero Amanecer Con Alguien
DYEAR=1989
DGENRE=Latin
TTITLE0=Quiero Amanecer Con Alguien
TTITLE1=La Ultima En Tu Vida
TTITLE2=Explorame
TTITLE3=Nada Me Falta, Nada Me Sobra
TTITLE4=Balada Por Un Amor
TTITLE5=Una Vez Mas
TTITLE6=Y Cae La Gota De Agua
TTITLE7=Solo Siempre Tu
TTITLE8=Dimelo
TTITLE9=Desnuda
TTITLE10=La Guirnalda
EXTD=
EXTT0=
EXTT1=
EXTT2=
EXTT3=
EXTT4=
EXTT5=
EXTT6=
EXTT7=
EXTT8=
EXTT9=
EXTT10=
PLAYORDER=
